/* XPM */
static char * poubelle_xpm[] = {
"32 32 548 2",
"  	c None",
". 	c #701416",
"+ 	c #711113",
"@ 	c #740D0E",
"# 	c #750D0E",
"$ 	c #750D10",
"% 	c #750E10",
"& 	c #751011",
"* 	c #761011",
"= 	c #761012",
"- 	c #761112",
"; 	c #781112",
"> 	c #701112",
", 	c #6D1112",
"' 	c #6A090A",
") 	c #800708",
"! 	c #A12E2F",
"~ 	c #B95859",
"{ 	c #BC5C5D",
"] 	c #BA4F50",
"^ 	c #B53F40",
"/ 	c #AE2121",
"( 	c #AF1E1F",
"_ 	c #B02021",
": 	c #B12223",
"< 	c #B22425",
"[ 	c #B32627",
"} 	c #B32828",
"| 	c #B3292A",
"1 	c #B52B2C",
"2 	c #B72E2E",
"3 	c #B83030",
"4 	c #B93232",
"5 	c #B93434",
"6 	c #BA3534",
"7 	c #BC3736",
"8 	c #BD3938",
"9 	c #BD3B39",
"0 	c #BB3B39",
"a 	c #A92E2D",
"b 	c #891919",
"c 	c #6B090C",
"d 	c #6B0B0E",
"e 	c #8B090B",
"f 	c #CD7A7A",
"g 	c #D99998",
"h 	c #D47F7E",
"i 	c #CA5C5C",
"j 	c #C74D4D",
"k 	c #C34042",
"l 	c #BD2526",
"m 	c #BE2424",
"n 	c #BF2627",
"o 	c #C12829",
"p 	c #C12A2B",
"q 	c #C22D2D",
"r 	c #C32F2F",
"s 	c #C33132",
"t 	c #C53334",
"u 	c #C73536",
"v 	c #C83738",
"w 	c #CA3A3A",
"x 	c #CA3D3C",
"y 	c #CB3F3E",
"z 	c #CD4140",
"A 	c #CF4342",
"B 	c #CE4643",
"C 	c #CF4845",
"D 	c #D14946",
"E 	c #CB4643",
"F 	c #9B2525",
"G 	c #6A0A0D",
"H 	c #6E1214",
"I 	c #800506",
"J 	c #CE7A7A",
"K 	c #DB9999",
"L 	c #BC3131",
"M 	c #B81818",
"N 	c #B81B1A",
"O 	c #B91D1C",
"P 	c #BA1F20",
"Q 	c #BB2123",
"R 	c #BD2323",
"S 	c #BE2425",
"T 	c #C02728",
"U 	c #C1282A",
"V 	c #C22B2C",
"W 	c #C22E2E",
"X 	c #C23030",
"Y 	c #C43233",
"Z 	c #C63435",
"` 	c #C83637",
" .	c #C93939",
"..	c #CA3B3B",
"+.	c #CB3E3D",
"@.	c #CB403F",
"#.	c #CE4241",
"$.	c #CE4442",
"%.	c #CE4744",
"&.	c #D04946",
"*.	c #D04947",
"=.	c #CC4644",
"-.	c #8C191A",
";.	c #6E1012",
">.	c #6D0B0D",
",.	c #9F2B2C",
"'.	c #D89696",
").	c #BA2E2F",
"!.	c #B31315",
"~.	c #B61617",
"{.	c #B81919",
"].	c #B81C1A",
"^.	c #B91E1D",
"/.	c #BA2021",
"(.	c #BF2526",
"_.	c #C02729",
":.	c #C1292B",
"<.	c #C22C2D",
"[.	c #C22F2F",
"}.	c #C33131",
"|.	c #C83737",
"1.	c #CC403F",
"2.	c #CE4341",
"3.	c #CE4543",
"4.	c #AC2F2F",
"5.	c #6E0E0F",
"6.	c #72090B",
"7.	c #B85353",
"8.	c #D07575",
"9.	c #B21010",
"0.	c #B21213",
"a.	c #B51516",
"b.	c #B81717",
"c.	c #B81A1A",
"d.	c #C03C3C",
"e.	c #CC6463",
"f.	c #D27576",
"g.	c #CF6A6A",
"h.	c #C64746",
"i.	c #C12A2C",
"j.	c #C22D2E",
"k.	c #C33030",
"l.	c #C43232",
"m.	c #C83838",
"n.	c #CC3F3E",
"o.	c #CE4644",
"p.	c #BE3C3B",
"q.	c #771214",
"r.	c #73090C",
"s.	c #B95050",
"t.	c #C34949",
"u.	c #B20E0F",
"v.	c #B21111",
"w.	c #BA2C2D",
"x.	c #D27B7B",
"y.	c #E5BAB9",
"z.	c #EFD8D7",
"A.	c #F8F0EF",
"B.	c #FBFAF9",
"C.	c #F3DFE0",
"D.	c #DB9392",
"E.	c #C33A3A",
"F.	c #C0292A",
"G.	c #C32E2F",
"H.	c #C84041",
"I.	c #C73436",
"J.	c #CA3C3B",
"K.	c #CF4744",
"L.	c #BF3E3C",
"M.	c #791416",
"N.	c #B54042",
"O.	c #BF3738",
"P.	c #B20E0E",
"Q.	c #B30F10",
"R.	c #B4181A",
"S.	c #BA3636",
"T.	c #C54D4D",
"U.	c #BE3433",
"V.	c #BE3534",
"W.	c #CA5E5E",
"X.	c #E3AFAE",
"Y.	c #FDFDFD",
"Z.	c #FDFEFE",
"`.	c #E4A8A8",
" +	c #C23234",
".+	c #CD5B5C",
"++	c #E4B3B3",
"@+	c #CF6161",
"#+	c #C73636",
"$+	c #7A1516",
"%+	c #72090C",
"&+	c #B03031",
"*+	c #BA2A2A",
"=+	c #B10D0D",
"-+	c #B30F0E",
";+	c #B31011",
">+	c #B21314",
",+	c #B61516",
"'+	c #B81B19",
")+	c #C13636",
"!+	c #E3ABAB",
"~+	c #FEFEFD",
"{+	c #FDFCFC",
"]+	c #D9898A",
"^+	c #D06C6C",
"/+	c #C43B3C",
"(+	c #CA4F4F",
"_+	c #EFD5D5",
":+	c #E5B0B0",
"<+	c #C63B3B",
"[+	c #C73637",
"}+	c #CB3B3B",
"|+	c #CC403E",
"1+	c #CF4443",
"2+	c #BF3D3B",
"3+	c #791415",
"4+	c #AB2223",
"5+	c #B61E1E",
"6+	c #B00B0B",
"7+	c #B10E0D",
"8+	c #B30F0F",
"9+	c #B21113",
"0+	c #B71617",
"a+	c #C65253",
"b+	c #F5E5E5",
"c+	c #FEFEFE",
"d+	c #FAF3F4",
"e+	c #E7BABA",
"f+	c #C23233",
"g+	c #C22C2C",
"h+	c #D98585",
"i+	c #FAF6F5",
"j+	c #D98283",
"k+	c #C63536",
"l+	c #C9393A",
"m+	c #CA3C3C",
"n+	c #CE4342",
"o+	c #BE3C3A",
"p+	c #A61616",
"q+	c #B11313",
"r+	c #AF0909",
"s+	c #B10C0C",
"t+	c #B21214",
"u+	c #B81817",
"v+	c #B81A19",
"w+	c #BA2827",
"x+	c #D58484",
"y+	c #F7EEEE",
"z+	c #FEFDFD",
"A+	c #D98586",
"B+	c #C22A2C",
"C+	c #C43738",
"D+	c #E6B5B4",
"E+	c #EDD0D0",
"F+	c #D88485",
"G+	c #DB8A8A",
"H+	c #CA4848",
"I+	c #BE3B3A",
"J+	c #A30B0C",
"K+	c #AF0B0B",
"L+	c #AE0808",
"M+	c #B00A0A",
"N+	c #B31112",
"O+	c #B61616",
"P+	c #B81918",
"Q+	c #B92322",
"R+	c #D27777",
"S+	c #E7BFBE",
"T+	c #FAF7F7",
"U+	c #F5E6E6",
"V+	c #C84D4D",
"W+	c #C2292B",
"X+	c #C32B2C",
"Y+	c #D06464",
"Z+	c #F3E3E3",
"`+	c #F9F0F0",
" @	c #E09798",
".@	c #C73433",
"+@	c #B11F1F",
"@@	c #A20607",
"#@	c #AD0708",
"$@	c #B00B0C",
"%@	c #B31214",
"&@	c #B41415",
"*@	c #B71717",
"=@	c #B91D1B",
"-@	c #BC2D2C",
";@	c #D06E6F",
">@	c #D57F80",
",@	c #BF2A29",
"'@	c #C22A2B",
")@	c #DC9393",
"!@	c #E4ACAD",
"~@	c #C94041",
"{@	c #C73535",
"]@	c #C12A2A",
"^@	c #BA1A1B",
"/@	c #B2080A",
"(@	c #A40103",
"_@	c #AE0707",
":@	c #AD0707",
"<@	c #B10C0D",
"[@	c #BB3435",
"}@	c #C65353",
"|@	c #C85656",
"1@	c #C95857",
"2@	c #C95A59",
"3@	c #CA5B5B",
"4@	c #CB6263",
"5@	c #CC5E5E",
"6@	c #CD5F5F",
"7@	c #CE6161",
"8@	c #CF6263",
"9@	c #D06262",
"0@	c #CA5757",
"a@	c #E9C2C2",
"b@	c #F2DFDF",
"c@	c #C85152",
"d@	c #B40D0E",
"e@	c #B00304",
"f@	c #AF0102",
"g@	c #AD0807",
"h@	c #AF0808",
"i@	c #B20E0D",
"j@	c #B31314",
"k@	c #DB9A9A",
"l@	c #FAF5F5",
"m@	c #FBF6F6",
"n@	c #CA5F60",
"o@	c #D37D7E",
"p@	c #AF0103",
"q@	c #AE0001",
"r@	c #AE0000",
"s@	c #A20506",
"t@	c #B10E0E",
"u@	c #DA9797",
"v@	c #FBFDFC",
"w@	c #DFA9A9",
"x@	c #E9C6C5",
"y@	c #F0DDDC",
"z@	c #D99898",
"A@	c #F7EFEF",
"B@	c #E3B2B2",
"C@	c #E2B1B0",
"D@	c #CF7071",
"E@	c #AE0305",
"F@	c #D88E8F",
"G@	c #EFDBDC",
"H@	c #C14243",
"I@	c #73090A",
"J@	c #A30104",
"K@	c #AE0102",
"L@	c #AD0102",
"M@	c #AD0202",
"N@	c #AE0203",
"O@	c #AE0304",
"P@	c #AF0406",
"Q@	c #CF7374",
"R@	c #F6EDEC",
"S@	c #BE3C3D",
"T@	c #E2AFAF",
"U@	c #B31A1C",
"V@	c #EECFCF",
"W@	c #C55052",
"X@	c #C95F60",
"Y@	c #FAF4F4",
"Z@	c #C65456",
"`@	c #BA2D2F",
" #	c #E9C8C7",
".#	c #DEA4A4",
"+#	c #B10C0F",
"@#	c #AD0000",
"##	c #AF0002",
"$#	c #C65355",
"%#	c #F8F1F0",
"&#	c #C34B4C",
"*#	c #C55454",
"=#	c #FCF9F9",
"-#	c #E1ADAD",
";#	c #B4181B",
">#	c #EECECF",
",#	c #F7EDEC",
"'#	c #BD3436",
")#	c #CE6F71",
"!#	c #F8F0F0",
"~#	c #BF3D3E",
"{#	c #CB6667",
"]#	c #E5B9BA",
"^#	c #B92527",
"/#	c #BE393B",
"(#	c #CA6465",
"_#	c #F9F1F1",
":#	c #EECECE",
"<#	c #F3E0E0",
"[#	c #B72425",
"}#	c #D68A8A",
"|#	c #B9292A",
"1#	c #B71E20",
"2#	c #B82425",
"3#	c #D37F80",
"4#	c #B92A2C",
"5#	c #F5E6E5",
"6#	c #EDCFCF",
"7#	c #B4191B",
"8#	c #DFA4A4",
"9#	c #EED4D2",
"0#	c #B5191A",
"a#	c #B31416",
"b#	c #EDCDCD",
"c#	c #DC999A",
"d#	c #B51C1F",
"e#	c #F0D7D7",
"f#	c #E1AEAE",
"g#	c #EECDCE",
"h#	c #E7BBBC",
"i#	c #B41618",
"j#	c #E7BCBC",
"k#	c #E7C0BF",
"l#	c #B10D0F",
"m#	c #B0080A",
"n#	c #E4B3B4",
"o#	c #E4B2B2",
"p#	c #B31618",
"q#	c #EAC5C5",
"r#	c #E1ADAE",
"s#	c #DEA3A4",
"t#	c #B5191C",
"u#	c #EED1D1",
"v#	c #E0A8A8",
"w#	c #AF0507",
"x#	c #AE0002",
"y#	c #AF0204",
"z#	c #D99596",
"A#	c #EAC7C8",
"B#	c #E2AEAF",
"C#	c #E0AEAF",
"D#	c #D68889",
"E#	c #B82426",
"F#	c #F4E1E1",
"G#	c #D78C8D",
"H#	c #AF0104",
"I#	c #AC0103",
"J#	c #AA0104",
"K#	c #AC0204",
"L#	c #A20204",
"M#	c #D07677",
"N#	c #F0DBDA",
"O#	c #BB3637",
"P#	c #E1ACAC",
"Q#	c #E4BABA",
"R#	c #B92F31",
"S#	c #EFD2D3",
"T#	c #C44F50",
"U#	c #F7EDED",
"V#	c #CF7072",
"W#	c #B00204",
"X#	c #9E0103",
"Y#	c #971D1E",
"Z#	c #AF5D5E",
"`#	c #BF8081",
" $	c #BC8081",
".$	c #B27373",
"+$	c #936767",
"@$	c #B00103",
"#$	c #C75758",
"$$	c #FAF8F8",
"%$	c #EDD1D1",
"&$	c #FBF7F7",
"*$	c #ECCFCF",
"=$	c #FDFEFD",
"-$	c #F5EAE9",
";$	c #EFD8D8",
">$	c #FBF9F8",
",$	c #C75556",
"'$	c #B00104",
")$	c #910103",
"!$	c #9D4E50",
"~$	c #CEB5B6",
"{$	c #F2F0F0",
"]$	c #E4E4E4",
"^$	c #CCCCCC",
"/$	c #B4B4B4",
"($	c #B5B5B5",
"_$	c #BA2E2E",
":$	c #E4B5B5",
"<$	c #EFD2D2",
"[$	c #F0D2D2",
"}$	c #E4B5B6",
"|$	c #BB2E2F",
"1$	c #9A0103",
"2$	c #8F3C3D",
"3$	c #DAC8C9",
"4$	c #F3F3F3",
"5$	c #E5E5E5",
"6$	c #CDCDCD",
"7$	c #BBBBBB",
"8$	c #D4D4D4",
"9$	c #72080B",
"0$	c #A20103",
"a$	c #AF0203",
"b$	c #B51618",
"c$	c #B41617",
"d$	c #B41315",
"e$	c #AE0103",
"f$	c #850608",
"g$	c #BB9495",
"h$	c #E7E7E7",
"i$	c #CFCFCF",
"j$	c #B6B6B6",
"k$	c #BABABA",
"l$	c #D3D3D3",
"m$	c #960103",
"n$	c #A90103",
"o$	c #862021",
"p$	c #E1D4D4",
"q$	c #E8E8E8",
"r$	c #D1D1D1",
"s$	c #B8B8B8",
"t$	c #6E1011",
"u$	c #800102",
"v$	c #AD0001",
"w$	c #A60103",
"x$	c #892D2E",
"y$	c #DED6D7",
"z$	c #D2D2D2",
"A$	c #B7B7B7",
"B$	c #6A0809",
"C$	c #8B0102",
"D$	c #AB0001",
"E$	c #A50003",
"F$	c #85292C",
"G$	c #CAC2C3",
"H$	c #D0D0D0",
"I$	c #6A080A",
"J$	c #810102",
"K$	c #970103",
"L$	c #A30103",
"M$	c #A50103",
"N$	c #980103",
"O$	c #7F2527",
"P$	c #B4ACAC",
"Q$	c #6D0F11",
"R$	c #6F0B0D",
"S$	c #730709",
"T$	c #73070A",
"U$	c #782A2D",
"V$	c #ADA4A4",
"W$	c #C9C9C9",
"      . + @ # $ $ $ $ % % % % & * * = - - - ; ; ; ; - > ,       ",
"    ' ) ! ~ { ] ^ / ( _ : < [ } | 1 2 3 4 5 6 7 8 9 0 a b c     ",
"  d e f g h i j k l m n o p q r s t u v w x y z A B C D E F G   ",
"H I J K L M N O P Q R S T U V W X Y Z `  ...+.@.#.$.%.&.*.=.-.;.",
">.,.'.).!.~.{.].^./.Q R (._.:.<.[.}.t u |. .x y 1.2.3.C &.&.4.5.",
"6.7.8.9.0.a.b.c.d.e.f.g.h.n U i.j.k.l.Z u m.w +.n.z $.o.C &.p.q.",
"r.s.t.u.v.!.w.x.y.z.A.B.C.D.E.F.V G.k.H.I.|. .J.+.1.#.3.K.&.L.M.",
"r.N.O.P.Q.R.S.T.U.V.W.X.Y.Z.`. +p <..+++@+#+m.w x y z A B C L.$+",
"%+&+*+=+-+;+>+,+M '+O )+!+~+{+]+^+/+(+_+:+<+[+ .}++.|+#.1+%.2+3+",
"%+4+5+6+7+8+9+!.0+{.].^.a+b+c+d+e+f+g+h+i+j+k+m.l+m+y 1.n+3.o+3+",
"%+p+q+r+s+u.9.t+a.u+v+w+x+y+c+z+A+o B+C+D+E+F+G+H+w +.y z $.I+3+",
"r.J+K+L+M+=+8+N+!.O+P+Q+R+S+T+U+V+_.W+X+Y+Z+`+Y. @ .m+y n..@+@# ",
"r.@@#@L+r+$@P.Q.%@&@*@v+=@-@;@>@,@n o '@q )@z+c+!@~@{@]@^@/@(@# ",
"r.@@_@:@L+M+<@P.v.[@}@|@1@2@3@4@5@6@7@8@9@0@a@b@c@^@d@e@f@f@(@# ",
"r.@@g@L+L+h@6+i@j@k@l@m@m@m@m@l@m@m@m@m@m@>@n@y+o@p@p@q@r@q@(@# ",
"%+s@:@:@:@_@r+s+t@u@v@w@x@Z.y@z@A@c+B@C@Y.D@E@F@G@H@p@q@r@q@(@# ",
"I@J@p@K@L@M@N@O@P@Q@R@S@Q@Y.T@U@V@m@W@X@Y@Z@p@`@ #.#+#q@r@q@(@# ",
"I@J@p@q@@#@#@#r@##$#%#&#*#=#-#;#>#,#'#)#!#~#p@p@{#]#^#q@r@q@(@# ",
"I@J@p@q@q@q@q@r@f@/#,#(#~#_#-#R.:#<#[#}#Z+|#p@p@p@1#p@q@r@q@(@# ",
"I@J@p@q@q@q@q@r@p@2#<#3#4#5#-#R.:#6#7#8#9#0#q@q@q@q@q@q@q@q@(@# ",
"I@J@p@q@q@q@q@r@f@a#b#c#d#e#f#R.g#h#i#j#k#l#q@r@r@r@r@q@q@q@(@# ",
"I@J@p@q@q@q@q@r@f@m#n#o#p#q#r#R.g#s#t#u#v#w#x#q@q@q@q@q@q@q@(@# ",
"I@J@p@q@q@q@q@r@f@y#z#A#p#B#C#R.b#D#E#F#G#H#p@p@p@p@p@I#J#K#L## ",
"I@J@p@q@q@q@q@r@f@p@M#N#O#P#Q#R#S#G#T#U#V#H#W#W#p@X#Y#Z#`# $.$+$",
"I@J@p@q@q@q@q@r@f@@$#$$$%$&$Y.*$=$-$;$>$,$p@'$p@)$!$~${$]$^$/$($",
"I@J@p@q@q@q@q@r@f@@$_$:$<$[$<$<$[$<$<$}$|$p@H#1$2$3$4$5$6$($7$8$",
"9$0$p@q@q@q@q@q@f@p@a$!.b$c$c$c$c$c$b$d$p@p@e$f$g$4$h$i$j$k$l$  ",
">.m$p@q@q@q@q@r@q@q@q@q@q@q@q@q@q@q@q@q@q@q@n$o$p$q$r$j$s$l$    ",
"t$u$I#q@q@q@q@q@r@r@r@r@r@r@r@r@r@r@r@r@@#v$w$x$y$z$A$j$z$      ",
"  B$C$D$q@q@q@q@q@q@q@q@q@q@q@q@q@q@q@q@q@q@E$F$G$k$A$H$        ",
"    I$J$K$L$M$M$M$M$M$M$M$M$M$M$M$M$M$M$M$M$N$O$P$A$i$          ",
"      Q$R$S$S$S$S$S$T$T$T$T$S$S$S$S$S$S$S$S$S$U$V$W$            "};
